<mxfile host="65bd71144e">
    <diagram id="ZhrAhU_mxHu6s6WHSYvS" name="Page-1">
        <mxGraphModel dx="1290" dy="1740" grid="1" gridSize="10" guides="1" tooltips="1" connect="1" arrows="1" fold="1" page="1" pageScale="1" pageWidth="850" pageHeight="1100" background="#ffffff" math="0" shadow="0">
            <root>
                <mxCell id="0"/>
                <mxCell id="1" parent="0"/>
                <mxCell id="6" value="" style="edgeStyle=none;html=1;" parent="1" source="3" target="5" edge="1">
                    <mxGeometry relative="1" as="geometry"/>
                </mxCell>
                <mxCell id="3" value="&lt;span style=&quot;font-size: 20px;&quot;&gt;&lt;b&gt;为了提高加载性能及节约带宽费用，首屏以下的图片会通过滚屏加载的方式异步加载&lt;br&gt;为了布局稳健、体验良好，会使用一张透明的图片占位&lt;br&gt;&amp;lt;img src=&quot;transparent.png&quot;&amp;gt;&lt;br&gt;&lt;/b&gt;&lt;/span&gt;" style="html=1;shadow=0;dashed=0;shape=mxgraph.bootstrap.rrect;rSize=5;strokeColor=#33A64C;html=1;whiteSpace=wrap;fillColor=#ffffff;fontColor=#33A64C;verticalAlign=bottom;align=left;spacing=20;spacingBottom=0;fontSize=14;" parent="1" vertex="1">
                    <mxGeometry x="70" y="140" width="320" height="240" as="geometry"/>
                </mxCell>
                <mxCell id="4" value="图片优化及兼容性问题" style="html=1;shadow=0;dashed=0;shape=mxgraph.bootstrap.topButton;rSize=5;perimeter=none;whiteSpace=wrap;fillColor=#F7F7F7;strokeColor=#33A64C;fontColor=#6C767D;resizeWidth=1;fontSize=18;align=left;spacing=20;" parent="3" vertex="1">
                    <mxGeometry width="320" height="50" relative="1" as="geometry"/>
                </mxCell>
                <mxCell id="8" value="" style="edgeStyle=none;html=1;" parent="1" source="5" target="7" edge="1">
                    <mxGeometry relative="1" as="geometry"/>
                </mxCell>
                <mxCell id="9" value="只使用CSS达到效果" style="edgeLabel;html=1;align=center;verticalAlign=middle;resizable=0;points=[];" parent="8" vertex="1" connectable="0">
                    <mxGeometry x="0.05" y="2" relative="1" as="geometry">
                        <mxPoint as="offset"/>
                    </mxGeometry>
                </mxCell>
                <mxCell id="5" value="把透明图片的资源也优化掉" style="whiteSpace=wrap;html=1;fontSize=14;align=left;verticalAlign=bottom;fillColor=#ffffff;strokeColor=#33A64C;fontColor=#33A64C;shadow=0;dashed=0;spacing=20;spacingBottom=0;" parent="1" vertex="1">
                    <mxGeometry x="500" y="230" width="210" height="60" as="geometry"/>
                </mxCell>
                <mxCell id="11" value="" style="edgeStyle=none;html=1;" parent="1" source="7" target="10" edge="1">
                    <mxGeometry relative="1" as="geometry"/>
                </mxCell>
                <mxCell id="13" value="" style="edgeStyle=none;html=1;" parent="1" source="7" target="12" edge="1">
                    <mxGeometry relative="1" as="geometry"/>
                </mxCell>
                <mxCell id="14" value="Firefox宽高无效&lt;br&gt;要设置display" style="edgeLabel;html=1;align=center;verticalAlign=middle;resizable=0;points=[];" parent="13" vertex="1" connectable="0">
                    <mxGeometry x="-0.0933" y="-1" relative="1" as="geometry">
                        <mxPoint as="offset"/>
                    </mxGeometry>
                </mxCell>
                <mxCell id="7" value="&amp;lt;img&amp;gt;&lt;br&gt;img { visibility: hidden }&lt;br&gt;img[src] { visibility: visible }" style="whiteSpace=wrap;html=1;fontSize=14;align=left;verticalAlign=bottom;fillColor=#ffffff;strokeColor=#33A64C;fontColor=#33A64C;shadow=0;dashed=0;spacing=20;spacingBottom=0;" parent="1" vertex="1">
                    <mxGeometry x="505" y="370" width="205" height="70" as="geometry"/>
                </mxCell>
                <mxCell id="10" value="不能有src属性&lt;br&gt;有了也会有请求&lt;br&gt;请求当前页面数据" style="triangle;whiteSpace=wrap;html=1;fontSize=14;align=left;verticalAlign=bottom;fillColor=#ffffff;strokeColor=#33A64C;fontColor=#33A64C;shadow=0;dashed=0;spacing=20;spacingBottom=0;" parent="1" vertex="1">
                    <mxGeometry x="740" y="340" width="190" height="90" as="geometry"/>
                </mxCell>
                <mxCell id="12" value="img { width: 200px; height: 150px; }&lt;br&gt;img { display: inline-block }" style="ellipse;whiteSpace=wrap;html=1;fontSize=14;align=left;verticalAlign=bottom;fillColor=#ffffff;strokeColor=#33A64C;fontColor=#33A64C;shadow=0;dashed=0;spacing=20;spacingBottom=0;" parent="1" vertex="1">
                    <mxGeometry x="477.5" y="515" width="262.5" height="75" as="geometry"/>
                </mxCell>
                <mxCell id="15" value="" style="fontStyle=0;verticalAlign=top;align=center;spacingTop=-2;fillColor=none;rounded=0;whiteSpace=wrap;html=1;strokeColor=#4376BB;strokeWidth=1;dashed=0;container=1;collapsible=0;expand=0;recursiveResize=0;" parent="1" vertex="1">
                    <mxGeometry x="460" y="190" width="480" height="430" as="geometry"/>
                </mxCell>
                <mxCell id="16" value="&lt;span style=&quot;font-size: 20px;&quot;&gt;&lt;b&gt;代码搁下面呢&lt;/b&gt;&lt;/span&gt;" style="html=1;shadow=0;dashed=0;shape=mxgraph.bootstrap.rrect;rSize=5;strokeColor=#0085FC;html=1;whiteSpace=wrap;fillColor=#ffffff;fontColor=#0085FC;verticalAlign=bottom;align=left;spacing=20;spacingBottom=0;fontSize=14;" parent="1" vertex="1">
                    <mxGeometry x="100" y="720" width="250" height="180" as="geometry"/>
                </mxCell>
                <mxCell id="17" value="content计数器" style="html=1;shadow=0;dashed=0;shape=mxgraph.bootstrap.topButton;rSize=5;perimeter=none;whiteSpace=wrap;fillColor=#F7F7F7;strokeColor=#0085FC;fontColor=#212529;resizeWidth=1;fontSize=18;align=left;spacing=20;" parent="16" vertex="1">
                    <mxGeometry width="250" height="50" relative="1" as="geometry"/>
                </mxCell>
                <mxCell id="18" value="&lt;span style=&quot;font-size: 20px;&quot;&gt;&lt;b&gt;代码搁下面呢&lt;/b&gt;&lt;/span&gt;" style="html=1;shadow=0;dashed=0;shape=mxgraph.bootstrap.rrect;rSize=5;strokeColor=#0085FC;html=1;whiteSpace=wrap;fillColor=#ffffff;fontColor=#0085FC;verticalAlign=bottom;align=left;spacing=20;spacingBottom=0;fontSize=14;" parent="1" vertex="1">
                    <mxGeometry x="100" y="530" width="250" height="180" as="geometry"/>
                </mxCell>
                <mxCell id="19" value="Loading动画效果" style="html=1;shadow=0;dashed=0;shape=mxgraph.bootstrap.topButton;rSize=5;perimeter=none;whiteSpace=wrap;fillColor=#F7F7F7;strokeColor=#0085FC;fontColor=#212529;resizeWidth=1;fontSize=18;align=left;spacing=20;" parent="18" vertex="1">
                    <mxGeometry width="250" height="50" relative="1" as="geometry"/>
                </mxCell>
            </root>
        </mxGraphModel>
    </diagram>
</mxfile>
